Coordinates
version=1
nRows=14
nColumns=24
inDegrees=yes

Units are S.I. units (second, meters, Newtons, ...)
Angles are in degrees.

endheader
time	pelvis_tilt	pelvis_list	pelvis_rotation	pelvis_tx	pelvis_ty	pelvis_tz	hip_flexion_r	hip_adduction_r	hip_rotation_r	knee_angle_r	ankle_angle_r	subtalar_angle_r	mtp_angle_r	hip_flexion_l	hip_adduction_l	hip_rotation_l	knee_angle_l	ankle_angle_l	subtalar_angle_l	mtp_angle_l	lumbar_extension	lumbar_bending	lumbar_rotation
      5.38000000	     38.46848180	      2.22778948	      5.64760555	      0.39132125	      0.67214908	     -0.21436818	    -29.27474024	      3.41737896	     -5.35475086	    -16.07111952	     17.67109552	      2.78812677	      0.00000000	    -22.11819510	     -5.57784017	     -6.90500207	    -68.21946918	      7.29122591	      1.96859278	      0.00000000	    -63.35257338	      3.74132050	     -7.38504076
      5.38500000	     38.40221003	      2.32748872	      5.41541076	      0.39629923	      0.67271906	     -0.21424229	    -29.88948781	      3.25394521	     -5.27528407	    -15.70177437	     17.93408887	      2.88988449	      0.00000000	    -21.21645489	     -5.26206253	     -7.25718820	    -67.93336580	      8.02846712	      2.16571285	      0.00000000	    -63.39048008	      3.48964678	     -7.26716389
      5.39000000	     38.33146826	      2.38864239	      5.14737080	      0.40128211	      0.67323130	     -0.21413967	    -30.48469094	      3.09357418	     -5.18743102	    -15.34450252	     18.21358903	      3.09541387	      0.00000000	    -20.34329669	     -4.97296496	     -7.66295544	    -67.54479341	      8.70965825	      2.39422009	      0.00000000	    -63.43175183	      3.24194917	     -7.07912762
      5.39500000	     38.26794693	      2.44177151	      4.87977776	      0.40624539	      0.67368016	     -0.21406163	    -31.07769095	      2.93561290	     -5.10140934	    -14.99801359	     18.49665128	      3.29461952	      0.00000000	    -19.49459945	     -4.69665959	     -8.06973579	    -67.07195308	      9.32705040	      2.64832598	      0.00000000	    -63.48142280	      2.99625517	     -6.87905928
      5.40000000	     38.20847095	      2.49630464	      4.64234876	      0.41118118	      0.67405716	     -0.21402304	    -31.66744508	      2.78950509	     -5.04444587	    -14.66073802	     18.76973200	      3.46844960	      0.00000000	    -18.65897558	     -4.43195479	     -8.44405221	    -66.52133884	      9.89373856	      2.91723497	      0.00000000	    -63.53707291	      2.77645971	     -6.68800318
      5.40500000	     38.16191856	      2.52994882	      4.38546984	      0.41614523	      0.67437679	     -0.21398848	    -32.26710407	      2.64671126	     -4.97866019	    -14.32769469	     19.09008669	      3.69316658	      0.00000000	    -17.87123700	     -4.19248915	     -8.84219910	    -65.87655409	     10.39915540	      3.24314235	      0.00000000	    -63.59822024	      2.56011628	     -6.48636316
      5.41000000	     38.12762605	      2.56253839	      4.13342910	      0.42109342	      0.67464030	     -0.21401465	    -32.87034699	      2.49779020	     -4.93127929	    -14.00890675	     19.41530123	      3.91455504	      0.00000000	    -17.12317854	     -3.95230691	     -9.22764090	    -65.13489474	     10.86496434	      3.58431666	      0.00000000	    -63.67227994	      2.36456211	     -6.28004866
      5.41500000	     38.07141947	      2.61912082	      3.96066468	      0.42599315	      0.67480974	     -0.21411246	    -33.43497331	      2.36783324	     -4.95106489	    -13.72119722	     19.68170740	      4.04553812	      0.00000000	    -16.34442235	     -3.70476548	     -9.51208831	    -64.33505471	     11.32021245	      3.88288246	      0.00000000	    -63.74040053	      2.21065302	     -6.09269321
      5.42000000	     38.02343657	      2.65621451	      3.78150660	      0.43092490	      0.67491438	     -0.21418757	    -34.00774822	      2.25119678	     -4.96228389	    -13.43248689	     20.01443418	      4.24108889	      0.00000000	    -15.60962607	     -3.49158246	     -9.80991829	    -63.44075690	     11.72064636	      4.23310616	      0.00000000	    -63.79885617	      2.06464914	     -5.91768454
      5.42500000	     38.01918298	      2.67096006	      3.55400051	      0.43587731	      0.67499231	     -0.21425337	    -34.61484223	      2.12112694	     -4.95153903	    -13.16733948	     20.39829354	      4.53195997	      0.00000000	    -14.97584487	     -3.29127678	    -10.14701253	    -62.42906510	     12.04748778	      4.62033757	      0.00000000	    -63.89694828	      1.89503692	     -5.73197938
      5.43000000	     37.96166883	      2.70629056	      3.45627143	      0.44076039	      0.67493037	     -0.21441268	    -35.15677992	      2.05182929	     -4.98890292	    -12.91283896	     20.68362613	      4.61412529	      0.00000000	    -14.25465049	     -3.09672276	    -10.34363173	    -61.39519557	     12.40544279	      4.84956803	      0.00000000	    -63.97043753	      1.79706808	     -5.53704333
      5.43500000	     37.97607739	      2.71643426	      3.23259953	      0.44573087	      0.67489272	     -0.21448599	    -35.76732227	      1.92205466	     -4.98745969	    -12.68205042	     21.10694347	      4.94443592	      0.00000000	    -13.71074457	     -2.91093347	    -10.65674480	    -60.19335122	     12.66280663	      5.25906509	      0.00000000	    -64.07779884	      1.63347836	     -5.37092416
      5.44000000	     37.97720982	      2.73464482	      3.07750593	      0.45068232	      0.67477029	     -0.21462892	    -36.35567450	      1.82695982	     -5.01001794	    -12.46896176	     21.46750489	      5.12858408	      0.00000000	    -13.16518259	     -2.72386092	    -10.88593514	    -58.91786179	     12.92470187	      5.54830167	      0.00000000	    -64.18084932	      1.51256469	     -5.17262722
      5.44500000	     37.91647569	      2.72737744	      3.01339159	      0.45557642	      0.67451938	     -0.21486229	    -36.84559312	      1.80548387	     -5.08099676	    -12.30647660	     21.78482764	      5.18675206	      0.00000000	    -12.54222439	     -2.56850267	    -10.99284107	    -57.60084814	     13.19890655	      5.76749820	      0.00000000	    -64.23630547	      1.47265322	     -4.97425211
